<svg xmlns="http://www.w3.org/2000/svg" viewBox="0 0 180 250" width="180" height="250">
  <!-- rope hanger -->
  <path d="M90 0v16M90 16 56 58M90 16l34 42" stroke="#8a6f4d" stroke-width="3" fill="none" stroke-linecap="round"/>
  <!-- pot -->
  <path d="M52 58h76l-7 32a9 9 0 0 1-9 7H68a9 9 0 0 1-9-7l-7-32Z" fill="#efe6d8"/>
  <rect x="47" y="51" width="86" height="12" rx="6" fill="#e0d4c0"/>
  <!-- trailing vines -->
  <g fill="none" stroke="#3a7d52" stroke-width="3" stroke-linecap="round">
    <path d="M62 94C48 130 44 170 52 210"/>
    <path d="M118 94c14 36 18 76 10 116"/>
    <path d="M90 96c-4 40-2 84 2 124"/>
    <path d="M76 95C68 124 66 152 68 180"/>
  </g>
  <!-- heart leaves along vines -->
  <g>
    <path d="M52 120c-10-8-10-20 0-24 8-4 16 2 14 12 8-6 18 0 16 10-2 8-12 12-18 8-6 2-10-2-12-6Z" fill="#4f9265" transform="scale(.7) translate(20 40)"/>
    <path d="M46 150c-8-6-8-16 0-20 6-3 13 2 11 10 7-5 15 0 13 8-2 7-10 10-15 7-5 2-8-2-9-5Z" fill="#65a678"/>
    <path d="M50 190c-8-6-8-16 0-20 6-3 13 2 11 10 7-5 15 0 13 8-2 7-10 10-15 7-5 2-8-2-9-5Z" fill="#4f9265"/>
    <path d="M124 130c8-6 8-16 0-20-6-3-13 2-11 10-7-5-15 0-13 8 2 7 10 10 15 7 5 2 8-2 9-5Z" fill="#4f9265"/>
    <path d="M128 170c8-6 8-16 0-20-6-3-13 2-11 10-7-5-15 0-13 8 2 7 10 10 15 7 5 2 8-2 9-5Z" fill="#65a678"/>
    <path d="M92 150c-8-6-8-16 0-20 6-3 13 2 11 10 7-5 15 0 13 8-2 7-10 10-15 7-5 2-8-2-9-5Z" fill="#3a7d52"/>
    <path d="M90 200c-8-6-8-16 0-20 6-3 13 2 11 10 7-5 15 0 13 8-2 7-10 10-15 7-5 2-8-2-9-5Z" fill="#65a678"/>
    <path d="M64 218c-7-5-7-14 0-17 5-3 11 2 9 8 6-4 13 0 11 7-2 6-9 9-13 6-4 2-7-1-7-4Z" fill="#4f9265"/>
    <path d="M116 222c7-5 7-14 0-17-5-3-11 2-9 8-6-4-13 0-11 7 2 6 9 9 13 6 4 2 7-1 7-4Z" fill="#3a7d52"/>
  </g>
  <!-- top foliage crown -->
  <path d="M60 60C50 42 56 24 74 18c4 12 0 22 6 30-6 6-12 10-20 12Z" fill="#3a7d52"/>
  <path d="M120 60c10-18 4-36-14-42-4 12 0 22-6 30 6 6 12 10 20 12Z" fill="#4f9265"/>
  <path d="M90 58C82 42 86 24 100 16c4 10 2 20 6 28-4 8-10 12-16 14Z" fill="#65a678"/>
</svg>
